<svg width="287" height="45" viewBox="0 0 287 45" fill="none" xmlns="http://www.w3.org/2000/svg">
<path d="M282.835 40V36.535C281.875 37.675 280.735 38.575 279.415 39.235C278.125 39.895 276.775 40.225 275.365 40.225C273.775 40.225 272.29 39.94 270.91 39.37C269.53 38.77 268.33 37.93 267.31 36.85C266.26 35.77 265.435 34.54 264.835 33.16C264.265 31.75 263.98 30.265 263.98 28.705C263.98 27.145 264.265 25.675 264.835 24.295C265.435 22.885 266.26 21.64 267.31 20.56C268.33 19.48 269.53 18.655 270.91 18.085C272.29 17.485 273.775 17.185 275.365 17.185C276.925 17.185 278.335 17.5 279.595 18.13C280.885 18.76 281.965 19.63 282.835 20.74V10.12H286.795V40H282.835ZM275.365 21.28C274.375 21.28 273.43 21.475 272.53 21.865C271.63 22.225 270.85 22.75 270.19 23.44C269.53 24.13 269.005 24.94 268.615 25.87C268.225 26.77 268.03 27.715 268.03 28.705C268.03 30.715 268.75 32.47 270.19 33.97C270.85 34.66 271.63 35.2 272.53 35.59C273.43 35.98 274.375 36.175 275.365 36.175C276.355 36.175 277.3 35.98 278.2 35.59C279.13 35.2 279.925 34.66 280.585 33.97C282.025 32.47 282.745 30.715 282.745 28.705C282.745 27.715 282.55 26.77 282.16 25.87C281.77 24.94 281.245 24.13 280.585 23.44C279.925 22.75 279.13 22.225 278.2 21.865C277.3 21.475 276.355 21.28 275.365 21.28Z" fill="#ffffff"/>
<path d="M256.406 40V26.5C256.406 25.15 255.911 23.98 254.921 22.99C253.961 22.03 252.791 21.55 251.411 21.55C250.061 21.55 248.891 22.045 247.901 23.035C247.451 23.485 247.091 24.025 246.821 24.655C246.551 25.255 246.416 25.87 246.416 26.5V40H242.501V18.04H246.416V19.885C246.986 19.195 247.736 18.625 248.666 18.175C249.596 17.725 250.511 17.5 251.411 17.5C252.611 17.5 253.751 17.74 254.831 18.22C255.941 18.67 256.916 19.315 257.756 20.155C258.566 20.965 259.196 21.925 259.646 23.035C260.126 24.115 260.366 25.27 260.366 26.5V40H256.406Z" fill="#ffffff"/>
<path d="M234.072 39.865V37.975C233.472 38.605 232.707 39.13 231.777 39.55C230.877 39.97 229.977 40.18 229.077 40.18C227.877 40.18 226.722 39.955 225.612 39.505C224.532 39.025 223.572 38.365 222.732 37.525C221.922 36.685 221.277 35.725 220.797 34.645C220.347 33.535 220.122 32.365 220.122 31.135V17.5H224.082V31.135C224.082 32.515 224.577 33.7 225.567 34.69C226.557 35.68 227.727 36.175 229.077 36.175C229.707 36.175 230.337 36.04 230.967 35.77C231.597 35.5 232.137 35.14 232.587 34.69C233.577 33.7 234.072 32.515 234.072 31.135V17.5H237.987V39.865H234.072Z" fill="#ffffff"/>
<path d="M205.052 40.225C203.522 40.225 202.067 39.925 200.687 39.325C199.307 38.725 198.092 37.9 197.042 36.85C195.992 35.8 195.167 34.585 194.567 33.205C193.967 31.825 193.667 30.37 193.667 28.84C193.667 27.28 193.967 25.795 194.567 24.385C195.167 22.975 195.992 21.745 197.042 20.695C198.092 19.645 199.307 18.835 200.687 18.265C202.067 17.665 203.522 17.365 205.052 17.365C206.612 17.365 208.097 17.665 209.507 18.265C210.917 18.835 212.147 19.645 213.197 20.695C214.247 21.745 215.057 22.975 215.627 24.385C216.227 25.795 216.527 27.28 216.527 28.84C216.527 30.37 216.227 31.825 215.627 33.205C215.057 34.585 214.247 35.8 213.197 36.85C212.147 37.9 210.917 38.725 209.507 39.325C208.097 39.925 206.612 40.225 205.052 40.225ZM205.052 21.37C203.042 21.37 201.317 22.09 199.877 23.53C199.187 24.22 198.647 25.03 198.257 25.96C197.867 26.89 197.672 27.85 197.672 28.84C197.672 29.83 197.867 30.775 198.257 31.675C198.647 32.575 199.187 33.37 199.877 34.06C200.567 34.75 201.347 35.29 202.217 35.68C203.117 36.07 204.062 36.265 205.052 36.265C206.042 36.265 207.002 36.07 207.932 35.68C208.862 35.29 209.657 34.75 210.317 34.06C210.977 33.37 211.502 32.575 211.892 31.675C212.282 30.775 212.477 29.83 212.477 28.84C212.477 27.85 212.282 26.89 211.892 25.96C211.502 25.03 210.977 24.22 210.317 23.53C209.657 22.84 208.862 22.315 207.932 21.955C207.032 21.565 206.072 21.37 205.052 21.37Z" fill="#ffffff"/>
<path d="M177.818 29.605V40H173.858V10.075H182.273C183.533 10.075 184.748 10.33 185.918 10.84C187.088 11.32 188.123 12.01 189.023 12.91C189.923 13.84 190.613 14.905 191.093 16.105C191.603 17.275 191.858 18.52 191.858 19.84C191.858 21.16 191.603 22.42 191.093 23.62C190.613 24.79 189.923 25.825 189.023 26.725C188.123 27.625 187.088 28.33 185.918 28.84C184.748 29.35 183.533 29.605 182.273 29.605H177.818ZM177.818 14.17V25.6H182.273C183.833 25.6 185.153 25.03 186.233 23.89C187.343 22.78 187.898 21.43 187.898 19.84C187.898 18.28 187.343 16.945 186.233 15.835C185.123 14.725 183.803 14.17 182.273 14.17H177.818Z" fill="#ffffff"/>
<path d="M151.449 30.46C151.449 31.18 151.704 31.93 152.214 32.71C152.754 33.49 153.369 34.15 154.059 34.69C155.319 35.68 156.789 36.175 158.469 36.175C161.139 36.175 163.314 34.885 164.994 32.305L168.414 34.33C167.244 36.22 165.804 37.675 164.094 38.695C162.384 39.715 160.509 40.225 158.469 40.225C156.939 40.225 155.484 39.94 154.104 39.37C152.724 38.77 151.509 37.945 150.459 36.895C149.409 35.845 148.584 34.63 147.984 33.25C147.414 31.87 147.129 30.415 147.129 28.885C147.129 27.355 147.414 25.9 147.984 24.52C148.584 23.11 149.409 21.88 150.459 20.83C151.479 19.78 152.679 18.97 154.059 18.4C155.469 17.83 156.939 17.545 158.469 17.545C159.999 17.545 161.454 17.83 162.834 18.4C164.244 18.97 165.459 19.78 166.479 20.83C168.699 23.11 169.809 25.75 169.809 28.75C169.809 29.29 169.764 29.86 169.674 30.46H151.449ZM158.469 21.235C157.239 21.235 156.084 21.505 155.004 22.045C153.924 22.585 153.054 23.305 152.394 24.205C151.764 25.075 151.449 26.005 151.449 26.995H165.489C165.489 26.005 165.159 25.075 164.499 24.205C163.869 23.305 163.014 22.585 161.934 22.045C160.854 21.505 159.699 21.235 158.469 21.235Z" fill="#ffffff"/>
<path d="M139.045 40V25.915C139.045 24.685 138.61 23.65 137.74 22.81C136.9 21.97 135.865 21.55 134.635 21.55C133.435 21.55 132.385 21.97 131.485 22.81C130.615 23.62 130.18 24.64 130.18 25.87V40H126.085V25.87C126.085 24.61 125.665 23.59 124.825 22.81C123.925 21.97 122.86 21.55 121.63 21.55C120.43 21.55 119.41 21.97 118.57 22.81C117.67 23.71 117.22 24.775 117.22 26.005V40H113.17V18.04H117.22V19.705C117.73 19.075 118.39 18.55 119.2 18.13C120.04 17.71 120.85 17.5 121.63 17.5C122.95 17.5 124.15 17.77 125.23 18.31C126.34 18.82 127.3 19.54 128.11 20.47C128.92 19.54 129.88 18.82 130.99 18.31C132.1 17.77 133.315 17.5 134.635 17.5C135.805 17.5 136.9 17.71 137.92 18.13C138.94 18.55 139.84 19.15 140.62 19.93C141.4 20.71 142 21.625 142.42 22.675C142.87 23.695 143.095 24.775 143.095 25.915V40H139.045Z" fill="#ffffff"/>
<path d="M104.632 40V36.58C103.672 37.69 102.562 38.575 101.302 39.235C100.042 39.895 98.7073 40.225 97.2973 40.225C95.7373 40.225 94.2673 39.94 92.8873 39.37C91.5373 38.8 90.3373 37.99 89.2873 36.94C88.2373 35.92 87.4123 34.72 86.8123 33.34C86.2423 31.93 85.9573 30.46 85.9573 28.93C85.9573 27.4 86.2423 25.945 86.8123 24.565C87.4123 23.155 88.2373 21.925 89.2873 20.875C90.3373 19.825 91.5373 19.015 92.8873 18.445C94.2673 17.875 95.7373 17.59 97.2973 17.59C98.7373 17.59 100.087 17.89 101.347 18.49C102.637 19.09 103.732 19.93 104.632 21.01V18.04H108.682V40H104.632ZM97.2973 21.595C96.3073 21.595 95.3473 21.79 94.4173 22.18C93.5173 22.54 92.7373 23.05 92.0773 23.71C91.4173 24.37 90.8923 25.165 90.5023 26.095C90.1423 26.995 89.9623 27.94 89.9623 28.93C89.9623 29.92 90.1423 30.865 90.5023 31.765C90.8923 32.665 91.4173 33.445 92.0773 34.105C92.7373 34.765 93.5173 35.29 94.4173 35.68C95.3473 36.04 96.3073 36.22 97.2973 36.22C98.2873 36.22 99.2323 36.04 100.132 35.68C101.032 35.29 101.812 34.765 102.472 34.105C103.132 33.445 103.642 32.665 104.002 31.765C104.392 30.865 104.587 29.92 104.587 28.93C104.587 27.94 104.392 26.995 104.002 26.095C103.642 25.165 103.132 24.37 102.472 23.71C101.812 23.05 101.032 22.54 100.132 22.18C99.2323 21.79 98.2873 21.595 97.2973 21.595Z" fill="#ffffff"/>
<path d="M78.785 37.12C78.095 37.63 77.4051 38.065 76.715 38.425C74.5251 39.595 72.2 40.18 69.74 40.18C68.21 40.18 66.74 39.955 65.33 39.505C63.47 38.965 61.775 38.065 60.245 36.805C58.715 35.545 57.47 34.015 56.51 32.215C55.37 30.145 54.8 27.85 54.8 25.33C54.8 24.55 54.83 23.95 54.89 23.53C55.07 21.88 55.49 20.32 56.15 18.85C56.84 17.35 57.725 16.03 58.805 14.89C59.885 13.75 61.115 12.79 62.495 12.01C63.905 11.23 65.405 10.69 66.995 10.39C67.895 10.21 68.8251 10.12 69.7851 10.12C72.2751 10.12 74.6451 10.75 76.8951 12.01C78.5751 13 80.09 14.275 81.4401 15.835L78.3351 18.445C76.865 16.825 75.32 15.67 73.7001 14.98C72.35 14.47 70.9851 14.215 69.6051 14.215C67.835 14.215 66.155 14.635 64.565 15.475C62.585 16.525 61.055 18.145 59.975 20.335C59.195 21.835 58.805 23.44 58.805 25.15C58.805 26.11 58.94 27.07 59.21 28.03C59.78 30.37 61.07 32.305 63.08 33.835C64.01 34.555 65.045 35.11 66.185 35.5C67.325 35.89 68.4951 36.085 69.6951 36.085C71.285 36.085 72.7701 35.77 74.1501 35.14C75.5601 34.48 76.8051 33.565 77.8851 32.395V29.38H73.7451V25.33H81.8901V33.88C80.9601 35.2 79.925 36.28 78.785 37.12Z" fill="#ffffff"/>
<circle cx="32.5" cy="35.5" r="9.5" fill="#4EB56B"/>
<path d="M19.5 0L32.9234 23.25H6.07661L19.5 0Z" fill="#F05A5A"/>
<rect y="26" width="19" height="19" fill="#FF914D"/>
</svg>