<svg width="195" height="71" viewBox="0 0 195 71" fill="none" xmlns="http://www.w3.org/2000/svg">
<path d="M174.782 21.46C174.782 22.18 175.037 22.93 175.547 23.71C176.087 24.49 176.702 25.15 177.392 25.69C178.652 26.68 180.122 27.175 181.802 27.175C184.472 27.175 186.647 25.885 188.327 23.305L191.747 25.33C190.577 27.22 189.137 28.675 187.427 29.695C185.717 30.715 183.842 31.225 181.802 31.225C180.272 31.225 178.817 30.94 177.437 30.37C176.057 29.77 174.842 28.945 173.792 27.895C172.742 26.845 171.917 25.63 171.317 24.25C170.747 22.87 170.462 21.415 170.462 19.885C170.462 18.355 170.747 16.9 171.317 15.52C171.917 14.11 172.742 12.88 173.792 11.83C174.812 10.78 176.012 9.96998 177.392 9.39998C178.802 8.82998 180.272 8.54498 181.802 8.54498C183.332 8.54498 184.787 8.82998 186.167 9.39998C187.577 9.96998 188.792 10.78 189.812 11.83C192.032 14.11 193.142 16.75 193.142 19.75C193.142 20.29 193.097 20.86 193.007 21.46H174.782ZM181.802 12.235C180.572 12.235 179.417 12.505 178.337 13.045C177.257 13.585 176.387 14.305 175.727 15.205C175.097 16.075 174.782 17.005 174.782 17.995H188.822C188.822 17.005 188.492 16.075 187.832 15.205C187.202 14.305 186.347 13.585 185.267 13.045C184.187 12.505 183.032 12.235 181.802 12.235Z" fill="#ffffff"/>
<path d="M162.378 31V16.915C162.378 15.685 161.943 14.65 161.073 13.81C160.233 12.97 159.198 12.55 157.968 12.55C156.768 12.55 155.718 12.97 154.818 13.81C153.948 14.62 153.513 15.64 153.513 16.87V31H149.418V16.87C149.418 15.61 148.998 14.59 148.158 13.81C147.258 12.97 146.193 12.55 144.963 12.55C143.763 12.55 142.743 12.97 141.903 13.81C141.003 14.71 140.553 15.775 140.553 17.005V31H136.503V9.04H140.553V10.705C141.063 10.075 141.723 9.55 142.533 9.13C143.373 8.71 144.183 8.5 144.963 8.5C146.283 8.5 147.483 8.77 148.563 9.31C149.673 9.82 150.633 10.54 151.443 11.47C152.253 10.54 153.213 9.82 154.323 9.31C155.433 8.77 156.648 8.5 157.968 8.5C159.138 8.5 160.233 8.71 161.253 9.13C162.273 9.55 163.173 10.15 163.953 10.93C164.733 11.71 165.333 12.625 165.753 13.675C166.203 14.695 166.428 15.775 166.428 16.915V31H162.378Z" fill="#ffffff"/>
<path d="M127.966 31V27.58C127.006 28.69 125.896 29.575 124.636 30.235C123.376 30.895 122.041 31.225 120.631 31.225C119.071 31.225 117.601 30.94 116.221 30.37C114.871 29.8 113.671 28.99 112.621 27.94C111.571 26.92 110.746 25.72 110.146 24.34C109.576 22.93 109.291 21.46 109.291 19.93C109.291 18.4 109.576 16.945 110.146 15.565C110.746 14.155 111.571 12.925 112.621 11.875C113.671 10.825 114.871 10.015 116.221 9.44497C117.601 8.87497 119.071 8.58997 120.631 8.58997C122.071 8.58997 123.421 8.88997 124.681 9.48997C125.971 10.09 127.066 10.93 127.966 12.01V9.03996H132.016V31H127.966ZM120.631 12.595C119.641 12.595 118.681 12.79 117.751 13.18C116.851 13.54 116.071 14.05 115.411 14.71C114.751 15.37 114.226 16.165 113.836 17.095C113.476 17.995 113.296 18.94 113.296 19.93C113.296 20.92 113.476 21.865 113.836 22.765C114.226 23.665 114.751 24.445 115.411 25.105C116.071 25.765 116.851 26.29 117.751 26.68C118.681 27.04 119.641 27.22 120.631 27.22C121.621 27.22 122.566 27.04 123.466 26.68C124.366 26.29 125.146 25.765 125.806 25.105C126.466 24.445 126.976 23.665 127.336 22.765C127.726 21.865 127.921 20.92 127.921 19.93C127.921 18.94 127.726 17.995 127.336 17.095C126.976 16.165 126.466 15.37 125.806 14.71C125.146 14.05 124.366 13.54 123.466 13.18C122.566 12.79 121.621 12.595 120.631 12.595Z" fill="#ffffff"/>
<path d="M102.118 28.12C101.428 28.63 100.738 29.065 100.048 29.425C97.8583 30.595 95.5333 31.18 93.0733 31.18C91.5433 31.18 90.0733 30.955 88.6633 30.505C86.8033 29.965 85.1083 29.065 83.5783 27.805C82.0483 26.545 80.8033 25.015 79.8433 23.215C78.7033 21.145 78.1333 18.85 78.1333 16.33C78.1333 15.55 78.1633 14.95 78.2233 14.53C78.4033 12.88 78.8233 11.32 79.4833 9.84999C80.1733 8.34999 81.0583 7.02999 82.1383 5.89C83.2183 4.75 84.4483 3.79 85.8283 3.00999C87.2383 2.23 88.7383 1.69 90.3283 1.38999C91.2283 1.20999 92.1583 1.12 93.1183 1.12C95.6083 1.12 97.9783 1.75 100.228 3.00999C101.908 3.99999 103.423 5.275 104.773 6.835L101.668 9.445C100.198 7.825 98.6533 6.66999 97.0333 5.97999C95.6833 5.47 94.3183 5.215 92.9383 5.215C91.1683 5.215 89.4883 5.635 87.8983 6.475C85.9183 7.52499 84.3883 9.14499 83.3083 11.335C82.5283 12.835 82.1383 14.44 82.1383 16.15C82.1383 17.11 82.2733 18.07 82.5433 19.03C83.1133 21.37 84.4033 23.305 86.4133 24.835C87.3433 25.555 88.3783 26.11 89.5183 26.5C90.6583 26.89 91.8283 27.085 93.0283 27.085C94.6183 27.085 96.1033 26.77 97.4833 26.14C98.8933 25.48 100.138 24.565 101.218 23.395V20.38H97.0783V16.33H105.223V24.88C104.293 26.2 103.258 27.28 102.118 28.12Z" fill="#ffffff"/>
<path d="M190.56 70V66.535C189.6 67.675 188.46 68.575 187.14 69.235C185.85 69.895 184.5 70.225 183.09 70.225C181.5 70.225 180.015 69.94 178.635 69.37C177.255 68.77 176.055 67.93 175.035 66.85C173.985 65.77 173.16 64.54 172.56 63.16C171.99 61.75 171.705 60.265 171.705 58.705C171.705 57.145 171.99 55.675 172.56 54.295C173.16 52.885 173.985 51.64 175.035 50.56C176.055 49.48 177.255 48.655 178.635 48.085C180.015 47.485 181.5 47.185 183.09 47.185C184.65 47.185 186.06 47.5 187.32 48.13C188.61 48.76 189.69 49.63 190.56 50.74V40.12H194.52V70H190.56ZM183.09 51.28C182.1 51.28 181.155 51.475 180.255 51.865C179.355 52.225 178.575 52.75 177.915 53.44C177.255 54.13 176.73 54.94 176.34 55.87C175.95 56.77 175.755 57.715 175.755 58.705C175.755 60.715 176.475 62.47 177.915 63.97C178.575 64.66 179.355 65.2 180.255 65.59C181.155 65.98 182.1 66.175 183.09 66.175C184.08 66.175 185.025 65.98 185.925 65.59C186.855 65.2 187.65 64.66 188.31 63.97C189.75 62.47 190.47 60.715 190.47 58.705C190.47 57.715 190.275 56.77 189.885 55.87C189.495 54.94 188.97 54.13 188.31 53.44C187.65 52.75 186.855 52.225 185.925 51.865C185.025 51.475 184.08 51.28 183.09 51.28Z" fill="#ffffff"/>
<path d="M164.131 70V56.5C164.131 55.15 163.636 53.98 162.646 52.99C161.686 52.03 160.516 51.55 159.136 51.55C157.786 51.55 156.616 52.045 155.626 53.035C155.176 53.485 154.816 54.025 154.546 54.655C154.276 55.255 154.141 55.87 154.141 56.5V70H150.226V48.04H154.141V49.885C154.711 49.195 155.461 48.625 156.391 48.175C157.321 47.725 158.236 47.5 159.136 47.5C160.336 47.5 161.476 47.74 162.556 48.22C163.666 48.67 164.641 49.315 165.481 50.155C166.291 50.965 166.921 51.925 167.371 53.035C167.851 54.115 168.091 55.27 168.091 56.5V70H164.131Z" fill="#ffffff"/>
<path d="M141.797 69.865V67.975C141.197 68.605 140.432 69.13 139.502 69.55C138.602 69.97 137.702 70.18 136.802 70.18C135.602 70.18 134.447 69.955 133.337 69.505C132.257 69.025 131.297 68.365 130.457 67.525C129.647 66.685 129.002 65.725 128.522 64.645C128.072 63.535 127.847 62.365 127.847 61.135V47.5H131.807V61.135C131.807 62.515 132.302 63.7 133.292 64.69C134.282 65.68 135.452 66.175 136.802 66.175C137.432 66.175 138.062 66.04 138.692 65.77C139.322 65.5 139.862 65.14 140.312 64.69C141.302 63.7 141.797 62.515 141.797 61.135V47.5H145.712V69.865H141.797Z" fill="#ffffff"/>
<path d="M112.777 70.225C111.247 70.225 109.792 69.925 108.412 69.325C107.032 68.725 105.817 67.9 104.767 66.85C103.717 65.8 102.892 64.585 102.292 63.205C101.692 61.825 101.392 60.37 101.392 58.84C101.392 57.28 101.692 55.795 102.292 54.385C102.892 52.975 103.717 51.745 104.767 50.695C105.817 49.645 107.032 48.835 108.412 48.265C109.792 47.665 111.247 47.365 112.777 47.365C114.337 47.365 115.822 47.665 117.232 48.265C118.642 48.835 119.872 49.645 120.922 50.695C121.972 51.745 122.782 52.975 123.352 54.385C123.952 55.795 124.252 57.28 124.252 58.84C124.252 60.37 123.952 61.825 123.352 63.205C122.782 64.585 121.972 65.8 120.922 66.85C119.872 67.9 118.642 68.725 117.232 69.325C115.822 69.925 114.337 70.225 112.777 70.225ZM112.777 51.37C110.767 51.37 109.042 52.09 107.602 53.53C106.912 54.22 106.372 55.03 105.982 55.96C105.592 56.89 105.397 57.85 105.397 58.84C105.397 59.83 105.592 60.775 105.982 61.675C106.372 62.575 106.912 63.37 107.602 64.06C108.292 64.75 109.072 65.29 109.942 65.68C110.842 66.07 111.787 66.265 112.777 66.265C113.767 66.265 114.727 66.07 115.657 65.68C116.587 65.29 117.382 64.75 118.042 64.06C118.702 63.37 119.227 62.575 119.617 61.675C120.007 60.775 120.202 59.83 120.202 58.84C120.202 57.85 120.007 56.89 119.617 55.96C119.227 55.03 118.702 54.22 118.042 53.53C117.382 52.84 116.587 52.315 115.657 51.955C114.757 51.565 113.797 51.37 112.777 51.37Z" fill="#ffffff"/>
<path d="M85.5433 59.605V70H81.5833V40.075H89.9983C91.2583 40.075 92.4733 40.33 93.6433 40.84C94.8133 41.32 95.8483 42.01 96.7483 42.91C97.6483 43.84 98.3383 44.905 98.8183 46.105C99.3283 47.275 99.5833 48.52 99.5833 49.84C99.5833 51.16 99.3283 52.42 98.8183 53.62C98.3383 54.79 97.6483 55.825 96.7483 56.725C95.8483 57.625 94.8133 58.33 93.6433 58.84C92.4733 59.35 91.2583 59.605 89.9983 59.605H85.5433ZM85.5433 44.17V55.6H89.9983C91.5583 55.6 92.8783 55.03 93.9583 53.89C95.0683 52.78 95.6233 51.43 95.6233 49.84C95.6233 48.28 95.0683 46.945 93.9583 45.835C92.8483 44.725 91.5283 44.17 89.9983 44.17H85.5433Z" fill="#ffffff"/>
<circle cx="50.5554" cy="55.2222" r="14.7778" fill="#4EB56B"/>
<path d="M30.3333 0L51.2141 36.1667H9.45244L30.3333 0Z" fill="#F05A5A"/>
<rect y="40.4445" width="29.5556" height="29.5556" fill="#FF914D"/>
</svg>
